# xmcd CD database file
#
# Track frame offsets:
#	150
#	12863
#	31124
#	44954
#	60725
#
# Disc length: 1038 seconds
#
# Revision: 0
# Processed by: cddbd v1.5PL3 Copyright (c) Steve Scherf et al.
# Submitted via: CDex 1.51
#
DISCID=3c040c05
DTITLE=Vanlustbader - Power Makes Sense
DYEAR=2004
DGENRE=Rock
TTITLE0=Scorcher
TTITLE1=All You People
TTITLE2=It's All About
TTITLE3=War Of The Worlds
TTITLE4=All She Sees Is Stars
EXTD=YEAR: 2004
EXTT0=
EXTT1=
EXTT2=
EXTT3=
EXTT4=
PLAYORDER=
